<svg width="14" height="4" viewBox="0 0 14 4" fill="none" xmlns="http://www.w3.org/2000/svg">
<path d="M10.3334 1.99998C10.3334 1.55795 10.509 1.13403 10.8215 0.821469C11.1341 0.508908 11.558 0.333313 12 0.333313C12.4421 0.333313 12.866 0.508908 13.1786 0.821469C13.4911 1.13403 13.6667 1.55795 13.6667 1.99998C13.6667 2.44201 13.4911 2.86593 13.1786 3.17849C12.866 3.49105 12.4421 3.66665 12 3.66665C11.558 3.66665 11.1341 3.49105 10.8215 3.17849C10.509 2.86593 10.3334 2.44201 10.3334 1.99998ZM5.33337 1.99998C5.33337 1.55795 5.50897 1.13403 5.82153 0.821469C6.13409 0.508908 6.55801 0.333313 7.00004 0.333313C7.44207 0.333313 7.86599 0.508908 8.17855 0.821469C8.49111 1.13403 8.66671 1.55795 8.66671 1.99998C8.66671 2.44201 8.49111 2.86593 8.17855 3.17849C7.86599 3.49105 7.44207 3.66665 7.00004 3.66665C6.55801 3.66665 6.13409 3.49105 5.82153 3.17849C5.50897 2.86593 5.33337 2.44201 5.33337 1.99998ZM0.333374 1.99998C0.333374 1.55795 0.508969 1.13403 0.821529 0.821469C1.13409 0.508908 1.55801 0.333313 2.00004 0.333313C2.44207 0.333313 2.86599 0.508908 3.17855 0.821469C3.49111 1.13403 3.66671 1.55795 3.66671 1.99998C3.66671 2.44201 3.49111 2.86593 3.17855 3.17849C2.86599 3.49105 2.44207 3.66665 2.00004 3.66665C1.55801 3.66665 1.13409 3.49105 0.821529 3.17849C0.508969 2.86593 0.333374 2.44201 0.333374 1.99998Z" fill="#828080"/>
</svg>
